<?xml version="1.0" standalone="no"?>
<!DOCTYPE svg PUBLIC "-//W3C//DTD SVG 20010904//EN"
 "http://www.w3.org/TR/2001/REC-SVG-20010904/DTD/svg10.dtd">
<svg version="1.0" xmlns="http://www.w3.org/2000/svg"
 width="620.000000pt" height="620.000000pt" viewBox="0 0 620.000000 620.000000"
 preserveAspectRatio="xMidYMid meet">
<metadata>
Created by potrace 1.15, written by Peter Selinger 2001-2017
</metadata>
<g transform="translate(0.000000,620.000000) scale(0.100000,-0.100000)"
fill="#ff9800" stroke="none">
<path d="M4295 5594 c-229 -33 -358 -71 -530 -155 -166 -82 -200 -103 -324
-203 -353 -284 -577 -679 -667 -1176 -18 -98 -26 -449 -12 -535 3 -22 9 -68
13 -102 l7 -63 -67 0 c-116 0 -252 28 -321 66 -72 39 -64 26 -175 314 -18 47
-50 114 -71 149 -21 34 -38 64 -38 66 0 4 -37 48 -72 85 -14 16 -25 30 -23 32
2 2 -23 23 -55 48 -95 73 -143 183 -143 325 0 48 7 104 18 140 49 162 -4 182
-215 83 -55 -26 -89 -56 -230 -199 -91 -93 -171 -169 -178 -169 -36 0 -237
-103 -366 -189 -89 -58 -263 -206 -322 -272 -68 -75 -224 -337 -263 -439 -29
-75 -27 -90 17 -133 32 -32 49 -39 121 -52 94 -18 104 -24 242 -141 13 -11 44
-44 69 -73 25 -30 52 -61 61 -70 27 -26 99 -143 94 -151 -3 -4 -30 -11 -60
-15 -211 -26 -434 -141 -554 -284 -70 -85 -97 -136 -112 -210 -13 -59 -12 -64
6 -77 28 -21 56 -17 117 15 30 16 108 42 174 57 109 25 136 27 334 28 l215 1
75 -36 c78 -37 129 -77 150 -119 14 -27 49 -191 55 -256 13 -147 39 -272 82
-389 15 -38 36 -98 49 -133 31 -88 76 -173 134 -248 28 -36 50 -71 50 -78 0
-14 -19 -23 -104 -51 -188 -61 -393 -213 -448 -332 -31 -69 -38 -156 -15 -188
12 -15 23 -17 78 -12 35 4 110 11 167 16 66 7 134 21 190 40 49 17 160 50 248
73 148 40 168 43 289 43 134 0 251 -7 438 -26 171 -18 401 -7 522 25 92 24
273 91 285 105 3 4 17 12 32 18 85 37 282 187 341 260 10 12 36 41 57 65 22
23 40 45 40 49 0 4 6 14 14 22 28 28 116 169 110 178 -3 5 -1 9 4 9 5 0 13 10
17 23 4 12 8 24 9 27 1 3 9 19 18 35 23 44 64 167 89 270 18 71 23 127 26 270
4 180 4 182 -30 310 -56 209 -101 316 -208 480 -58 90 -103 203 -117 292 -4
27 -7 109 -6 183 1 163 23 259 91 396 128 259 371 452 643 509 95 20 308 20
407 -1 313 -64 616 -333 669 -591 29 -139 77 -212 177 -265 34 -19 58 -23 127
-23 98 0 149 21 212 86 36 36 98 155 98 186 0 7 9 32 20 54 22 43 38 176 47
401 4 113 2 139 -22 245 -34 146 -69 244 -144 398 -81 167 -193 331 -308 453
-18 19 -35 43 -38 53 -4 11 -10 19 -15 19 -5 0 -56 38 -114 84 -227 182 -448
288 -721 347 -87 19 -385 34 -460 23z"/>
</g>
</svg>
